# xmcd
#
# Track frame offsets: 
#        150
#        16112
#        38057
#        54315
#        82815
#        102615
#        124765
#        144902
#        168892
#        189320
#
# Disc length: 2943 seconds
#
# Revision: 1
# Processed by: cddbd v1.5.2PL0 Copyright (c) Steve Scherf et al.
# Submitted via: ExactAudioCopy v0.99pb4
#
DISCID=700b7d0a
DTITLE=Pat Travers - Just a Touch
DYEAR=1993
DGENRE=Blues
TTITLE0=The Riff
TTITLE1=Too Cool Woman Blues
TTITLE2=You Don't Love Me
TTITLE3=The Pain
TTITLE4=Wasted Years
TTITLE5=I've Fallen
TTITLE6=Daydream (Your Blues Away)
TTITLE7=Amanda
TTITLE8=The More Things Change
TTITLE9=Miss Glory
EXTD=Blues Bureau-1993
EXTT0=
EXTT1=
EXTT2=
EXTT3=
EXTT4=
EXTT5=
EXTT6=
EXTT7=
EXTT8=
EXTT9=
PLAYORDER=
